# xmcd CD database file
#
# Track frame offsets:
#	150
#	21472
#	45969
#	74828
#	99935
#	118637
#	143911
#	172589
#	201234
#	223076
#	238600
#	263121
#	296638
#	334112
#
# Disc length: 4790 seconds
#
# Revision: 0
# Processed by: cddbd v1.5.2PL0 Copyright (c) Steve Scherf et al.
# Submitted via: CDex 1.70beta2
#
DISCID=d212b40e
DTITLE=Various Artist - Italian Job
DYEAR=2009
DGENRE=Jazz
TTITLE0=Fabrizio Bosso - Zoogami
TTITLE1=Milestone - Il Cielo In Una Stanza
TTITLE2=Paolo Fresu -Kosmopolites
TTITLE3=Flavio Boltro - Doktor K
TTITLE4=Alice Ricciardi - Give Me The Simple Life
TTITLE5=Gianluca Petrella
TTITLE6=Stefano Di Battista - Romeo and Juliet
TTITLE7=Franco D'Andrea - Fragole/Monodic
TTITLE8=Paolo Fresu - Roberto Stepitoso
TTITLE9=Funk Off - Follow The White Rabbit
TTITLE10=Fabrizio Bosso - You've Changed
TTITLE11=Paolo Fresu -Moto Perpetuo
TTITLE12=Giuseppe Emmanuele - Epilogo
TTITLE13=High Five - Five For Fun
EXTD=YEAR: 2009
EXTT0=
EXTT1=
EXTT2=
EXTT3=
EXTT4=
EXTT5=
EXTT6=
EXTT7=
EXTT8=
EXTT9=
EXTT10=
EXTT11=
EXTT12=
EXTT13=
PLAYORDER=
